<?xml version="1.0" encoding="UTF-8" standalone="no"?>
<!DOCTYPE svg PUBLIC "-//W3C//DTD SVG 1.1//EN" "http://www.w3.org/Graphics/SVG/1.1/DTD/svg11.dtd">
<svg width="100%" height="100%" viewBox="0 0 1000 1000" version="1.1" xmlns="http://www.w3.org/2000/svg" xmlns:xlink="http://www.w3.org/1999/xlink" xml:space="preserve" xmlns:serif="http://www.serif.com/" style="fill-rule:evenodd;clip-rule:evenodd;stroke-linejoin:round;stroke-miterlimit:2;">
    <g transform="matrix(0.907692,0,0,1.12794,-329.586,-70.5882)">
        <path d="M913.95,195.567C913.95,171.102 889.268,151.239 858.866,151.239L748.696,151.239C718.294,151.239 693.611,171.102 693.611,195.567L693.611,816.167C693.611,840.632 718.294,860.495 748.696,860.495L858.866,860.495C889.268,860.495 913.95,840.632 913.95,816.167L913.95,195.567Z" style="fill:rgb(221,46,64);"/>
    </g>
    <g transform="matrix(0.907692,0,0,1.12794,-529.586,-70.5882)">
        <path d="M913.95,195.567C913.95,171.102 889.268,151.239 858.866,151.239L748.696,151.239C718.294,151.239 693.611,171.102 693.611,195.567L693.611,816.167C693.611,840.632 718.294,860.495 748.696,860.495L858.866,860.495C889.268,860.495 913.95,840.632 913.95,816.167L913.95,195.567Z" style="fill:rgb(2,138,53);"/>
    </g>
    <g transform="matrix(0.907692,0,0,1.12794,-129.586,-70.5882)">
        <path d="M913.95,195.567C913.95,171.102 889.268,151.239 858.866,151.239L748.696,151.239C718.294,151.239 693.611,171.102 693.611,195.567L693.611,816.167C693.611,840.632 718.294,860.495 748.696,860.495L858.866,860.495C889.268,860.495 913.95,840.632 913.95,816.167L913.95,195.567Z" style="fill:rgb(233,222,0);"/>
    </g>
    <g transform="matrix(0.907692,0,0,1.12794,70.4142,-70.5882)">
        <path d="M913.95,195.567C913.95,171.102 889.268,151.239 858.866,151.239L748.696,151.239C718.294,151.239 693.611,171.102 693.611,195.567L693.611,816.167C693.611,840.632 718.294,860.495 748.696,860.495L858.866,860.495C889.268,860.495 913.95,840.632 913.95,816.167L913.95,195.567Z" style="fill:rgb(55,124,185);"/>
    </g>
</svg>
