<?xml version="1.0" encoding="UTF-8" standalone="no"?>
<!DOCTYPE svg PUBLIC "-//W3C//DTD SVG 1.1//EN" "http://www.w3.org/Graphics/SVG/1.1/DTD/svg11.dtd">
<svg width="100%" height="100%" viewBox="0 0 1000 1000" version="1.1" xmlns="http://www.w3.org/2000/svg" xmlns:xlink="http://www.w3.org/1999/xlink" xml:space="preserve" xmlns:serif="http://www.serif.com/" style="fill-rule:evenodd;clip-rule:evenodd;stroke-linecap:round;stroke-linejoin:round;stroke-miterlimit:1.5;">
    <g transform="matrix(0.965647,0,0,1.18673,21.5827,-142.101)">
        <rect x="132.986" y="140.808" width="724.902" height="800.522" style="fill:none;"/>
        <g transform="matrix(1.0282,0,0,2.60487,-207.131,74.5993)">
            <path d="M758.801,298.566C758.801,293.529 746.068,289.439 730.386,289.439L420.853,289.439C405.17,289.439 392.438,293.529 392.438,298.566C392.438,303.603 405.17,307.692 420.853,307.692L730.386,307.692C746.068,307.692 758.801,303.603 758.801,298.566Z" style="fill:rgb(55,55,55);"/>
        </g>
        <g transform="matrix(1.56995,0,0,2.60487,-419.731,6.75853)">
            <path d="M758.801,298.566C758.801,293.529 750.462,289.439 740.191,289.439L411.048,289.439C400.777,289.439 392.438,293.529 392.438,298.566C392.438,303.603 400.777,307.692 411.048,307.692L740.191,307.692C750.462,307.692 758.801,303.603 758.801,298.566Z" style="fill:rgb(55,55,55);"/>
        </g>
        <g transform="matrix(0.70666,0,0,3.41111,-80.4516,-309.057)">
            <path d="M758.801,298.566C758.801,293.529 734.541,289.439 704.66,289.439L446.578,289.439C416.697,289.439 392.438,293.529 392.438,298.566C392.438,303.603 416.697,307.692 446.578,307.692L704.66,307.692C734.541,307.692 758.801,303.603 758.801,298.566Z" style="fill:rgb(55,55,55);"/>
        </g>
        <g transform="matrix(1.4299,0,0,2.60487,-364.773,-204.719)">
            <path d="M758.801,298.566C758.801,293.529 749.645,289.439 738.368,289.439L412.87,289.439C401.593,289.439 392.438,293.529 392.438,298.566C392.438,303.603 401.593,307.692 412.87,307.692L738.368,307.692C749.645,307.692 758.801,303.603 758.801,298.566Z" style="fill:rgb(55,55,55);"/>
        </g>
        <g transform="matrix(0.70666,0,0,3.41111,-80.4516,-520.257)">
            <path d="M758.801,298.566C758.801,293.529 734.541,289.439 704.66,289.439L446.578,289.439C416.697,289.439 392.438,293.529 392.438,298.566C392.438,303.603 416.697,307.692 446.578,307.692L704.66,307.692C734.541,307.692 758.801,303.603 758.801,298.566Z" style="fill:rgb(55,55,55);"/>
        </g>
        <g transform="matrix(0.63019,0,0,2.60487,173.192,-410.074)">
            <path d="M758.801,298.566C758.801,293.529 738.027,289.439 712.44,289.439L438.799,289.439C413.212,289.439 392.438,293.529 392.438,298.566C392.438,303.603 413.212,307.692 438.799,307.692L712.44,307.692C738.027,307.692 758.801,303.603 758.801,298.566Z" style="fill:rgb(55,55,55);"/>
        </g>
        <g transform="matrix(0.958183,0,0,2.60487,44.4753,-491.645)">
            <path d="M758.801,298.566C758.801,293.529 745.138,289.439 728.309,289.439L422.929,289.439C406.101,289.439 392.438,293.529 392.438,298.566C392.438,303.603 406.101,307.692 422.929,307.692L728.309,307.692C745.138,307.692 758.801,303.603 758.801,298.566Z" style="fill:rgb(55,55,55);"/>
        </g>
        <g transform="matrix(0.958183,0,0,2.60487,44.4753,-574.701)">
            <path d="M758.801,298.566C758.801,293.529 745.138,289.439 728.309,289.439L422.929,289.439C406.101,289.439 392.438,293.529 392.438,298.566C392.438,303.603 406.101,307.692 422.929,307.692L728.309,307.692C745.138,307.692 758.801,303.603 758.801,298.566Z" style="fill:rgb(55,55,55);"/>
        </g>
        <g transform="matrix(0.863354,0,0,0.888889,37.8462,-28.8551)">
            <rect x="204.694" y="254.237" width="179.922" height="200.13" style="fill:none;stroke:rgb(55,55,55);stroke-width:43.83px;"/>
        </g>
        <rect x="132.986" y="140.808" width="724.902" height="800.522" style="fill:none;stroke:rgb(55,55,55);stroke-width:38.51px;"/>
    </g>
</svg>
