<?xml version="1.0" encoding="UTF-8" standalone="no"?>
<!DOCTYPE svg PUBLIC "-//W3C//DTD SVG 1.1//EN" "http://www.w3.org/Graphics/SVG/1.1/DTD/svg11.dtd">
<svg width="100%" height="100%" viewBox="0 0 1000 1000" version="1.1" xmlns="http://www.w3.org/2000/svg" xmlns:xlink="http://www.w3.org/1999/xlink" xml:space="preserve" xmlns:serif="http://www.serif.com/" style="fill-rule:evenodd;clip-rule:evenodd;stroke-linejoin:round;stroke-miterlimit:2;">
    <g transform="matrix(1.17647,0,0,1.17647,-88.2353,-88.4333)">
        <path d="M658.45,801.625C760.696,763.925 865.073,841.106 925,825C878.576,802.124 816.109,738.731 873.921,655.424C899.346,618.787 630.756,811.837 658.45,801.625Z" style="fill:url(#_Linear1);"/>
    </g>
    <g transform="matrix(1.19844,0,0,1.28908,-71.875,-228.769)">
        <ellipse cx="477.184" cy="565.189" rx="417.21" ry="296.61" style="fill:url(#_Linear2);"/>
    </g>
    <g transform="matrix(1.17647,0,0,1.17647,-30.1787,-111.058)">
        <circle cx="250.652" cy="519.231" r="70.73" style="fill:white;"/>
    </g>
    <g transform="matrix(1.17647,0,0,1.17647,440.41,-111.058)">
        <circle cx="250.652" cy="519.231" r="70.73" style="fill:white;"/>
    </g>
    <g transform="matrix(1.17647,0,0,1.17647,205.115,-111.058)">
        <circle cx="250.652" cy="519.231" r="70.73" style="fill:white;"/>
    </g>
    <defs>
        <linearGradient id="_Linear1" x1="0" y1="0" x2="1" y2="0" gradientUnits="userSpaceOnUse" gradientTransform="matrix(116.014,114.665,-114.665,116.014,808.986,710.335)"><stop offset="0" style="stop-color:rgb(0,185,239);stop-opacity:1"/><stop offset="0.49" style="stop-color:rgb(0,177,228);stop-opacity:1"/><stop offset="1" style="stop-color:rgb(0,152,196);stop-opacity:1"/></linearGradient>
        <linearGradient id="_Linear2" x1="0" y1="0" x2="1" y2="0" gradientUnits="userSpaceOnUse" gradientTransform="matrix(-1.02612e-13,593.22,-638.086,-9.53971e-14,477.184,268.579)"><stop offset="0" style="stop-color:rgb(14,200,255);stop-opacity:1"/><stop offset="1" style="stop-color:rgb(0,183,237);stop-opacity:1"/></linearGradient>
    </defs>
</svg>
