<?xml version="1.0" encoding="UTF-8" standalone="no"?>
<!DOCTYPE svg PUBLIC "-//W3C//DTD SVG 1.1//EN" "http://www.w3.org/Graphics/SVG/1.1/DTD/svg11.dtd">
<svg width="100%" height="100%" viewBox="0 0 1000 1000" version="1.1" xmlns="http://www.w3.org/2000/svg" xmlns:xlink="http://www.w3.org/1999/xlink" xml:space="preserve" xmlns:serif="http://www.serif.com/" style="fill-rule:evenodd;clip-rule:evenodd;stroke-linejoin:round;stroke-miterlimit:2;">
    <g transform="matrix(1.13992,0,0,0.8125,-7.95922,122.85)">
        <path d="M796.515,425.723C796.515,404.495 784.231,387.261 769.1,387.261L209.848,387.261C194.718,387.261 182.434,404.495 182.434,425.723L182.434,502.646C182.434,523.873 194.718,541.107 209.848,541.107L769.1,541.107C784.231,541.107 796.515,523.873 796.515,502.646L796.515,425.723Z" style="fill:rgb(56,56,56);"/>
    </g>
    <g transform="matrix(0.97707,0,0,0.8125,-141.337,-264.65)">
        <path d="M796.515,425.723C796.515,404.495 782.183,387.261 764.531,387.261L214.417,387.261C196.765,387.261 182.434,404.495 182.434,425.723L182.434,502.646C182.434,523.873 196.765,541.107 214.417,541.107L764.531,541.107C782.183,541.107 796.515,523.873 796.515,502.646L796.515,425.723Z" style="fill:rgb(56,56,56);"/>
    </g>
    <g transform="matrix(0.97707,0,0,0.8125,-141.337,510.35)">
        <path d="M796.515,425.723C796.515,404.495 782.183,387.261 764.531,387.261L214.417,387.261C196.765,387.261 182.434,404.495 182.434,425.723L182.434,502.646C182.434,523.873 196.765,541.107 214.417,541.107L764.531,541.107C782.183,541.107 796.515,523.873 796.515,502.646L796.515,425.723Z" style="fill:rgb(56,56,56);"/>
    </g>
    <g transform="matrix(8.97424e-17,-1.46561,0.8125,4.97513e-17,-277.15,1217.38)">
        <path d="M796.515,425.723C796.515,404.495 786.96,387.261 775.192,387.261L203.756,387.261C191.988,387.261 182.434,404.495 182.434,425.723L182.434,502.646C182.434,523.873 191.988,541.107 203.756,541.107L775.192,541.107C786.96,541.107 796.515,523.873 796.515,502.646L796.515,425.723Z" style="fill:rgb(56,56,56);"/>
    </g>
    <g transform="matrix(2.99141e-17,-0.488535,0.8125,4.97513e-17,197.264,439.125)">
        <path d="M796.515,425.723C796.515,404.495 767.852,387.261 732.548,387.261L246.401,387.261C211.096,387.261 182.434,404.495 182.434,425.723L182.434,502.646C182.434,523.873 211.096,541.107 246.401,541.107L732.548,541.107C767.852,541.107 796.515,523.873 796.515,502.646L796.515,425.723Z" style="fill:rgb(56,56,56);"/>
    </g>
    <g transform="matrix(2.99141e-17,-0.488535,0.8125,4.97513e-17,197.264,1039.13)">
        <path d="M796.515,425.723C796.515,404.495 767.852,387.261 732.548,387.261L246.401,387.261C211.096,387.261 182.434,404.495 182.434,425.723L182.434,502.646C182.434,523.873 211.096,541.107 246.401,541.107L732.548,541.107C767.852,541.107 796.515,523.873 796.515,502.646L796.515,425.723Z" style="fill:rgb(56,56,56);"/>
    </g>
    <g transform="matrix(0.379991,0.379991,-0.574524,0.574524,902.337,-28.7405)">
        <path d="M796.515,425.723C796.515,404.495 770.458,387.261 738.363,387.261L240.586,387.261C208.491,387.261 182.434,404.495 182.434,425.723L182.434,502.646C182.434,523.873 208.491,541.107 240.586,541.107L738.363,541.107C770.458,541.107 796.515,523.873 796.515,502.646L796.515,425.723Z" style="fill:rgb(56,56,56);"/>
    </g>
    <g transform="matrix(0.379991,-0.379991,0.574524,0.574524,368.967,491.168)">
        <path d="M796.515,425.723C796.515,404.495 770.458,387.261 738.363,387.261L240.586,387.261C208.491,387.261 182.434,404.495 182.434,425.723L182.434,502.646C182.434,523.873 208.491,541.107 240.586,541.107L738.363,541.107C770.458,541.107 796.515,523.873 796.515,502.646L796.515,425.723Z" style="fill:rgb(56,56,56);"/>
    </g>
</svg>
