<?xml version="1.0" encoding="UTF-8" standalone="no"?>
<!DOCTYPE svg PUBLIC "-//W3C//DTD SVG 1.1//EN" "http://www.w3.org/Graphics/SVG/1.1/DTD/svg11.dtd">
<svg width="100%" height="100%" viewBox="0 0 1000 1000" version="1.1" xmlns="http://www.w3.org/2000/svg" xmlns:xlink="http://www.w3.org/1999/xlink" xml:space="preserve" xmlns:serif="http://www.serif.com/" style="fill-rule:evenodd;clip-rule:evenodd;stroke-linejoin:round;stroke-miterlimit:2;">
    <g transform="matrix(-1.05854,-1.29634e-16,1.65034e-16,-1.3476,1013.88,1171.6)">
        <path d="M916.137,471.728C916.137,458.93 902.909,448.539 886.615,448.539L179.458,448.539C163.165,448.539 149.936,458.93 149.936,471.728L149.936,518.107C149.936,530.905 163.165,541.296 179.458,541.296L886.615,541.296C902.909,541.296 916.137,530.905 916.137,518.107L916.137,471.728Z" style="fill:rgb(56,56,56);"/>
    </g>
    <g transform="matrix(-0.553724,-0.553724,0.952899,-0.952899,536.062,1098.6)">
        <path d="M916.137,471.728C916.137,458.93 898.256,448.539 876.231,448.539L189.843,448.539C167.818,448.539 149.936,458.93 149.936,471.728L149.936,518.107C149.936,530.905 167.818,541.296 189.843,541.296L876.231,541.296C898.256,541.296 916.137,530.905 916.137,518.107L916.137,471.728Z" style="fill:rgb(56,56,56);"/>
    </g>
    <g transform="matrix(-0.553724,0.553724,-0.952899,-0.952899,1479.27,844.608)">
        <path d="M916.137,471.728C916.137,458.93 898.256,448.539 876.231,448.539L189.843,448.539C167.818,448.539 149.936,458.93 149.936,471.728L149.936,518.107C149.936,530.905 167.818,541.296 189.843,541.296L876.231,541.296C898.256,541.296 916.137,530.905 916.137,518.107L916.137,471.728Z" style="fill:rgb(56,56,56);"/>
    </g>
</svg>
