<?xml version="1.0" encoding="UTF-8" standalone="no"?>
<!DOCTYPE svg PUBLIC "-//W3C//DTD SVG 1.1//EN" "http://www.w3.org/Graphics/SVG/1.1/DTD/svg11.dtd">
<svg width="100%" height="100%" viewBox="0 0 1000 1000" version="1.1" xmlns="http://www.w3.org/2000/svg" xmlns:xlink="http://www.w3.org/1999/xlink" xml:space="preserve" xmlns:serif="http://www.serif.com/" style="fill-rule:evenodd;clip-rule:evenodd;stroke-linejoin:round;stroke-miterlimit:2;">
    <g id="Lower-link" serif:id="Lower link" transform="matrix(0.645699,0.391882,-0.518833,0.854875,292.904,237.634)">
        <rect x="235.705" y="198.856" width="519.06" height="97.205" style="fill:rgb(66,66,66);"/>
    </g>
    <g id="Upper-link" serif:id="Upper link" transform="matrix(0.653137,-0.356509,0.479114,0.877753,42.2699,317.353)">
        <rect x="235.705" y="198.856" width="519.06" height="97.205" style="fill:rgb(66,66,66);"/>
    </g>
    <g id="Hollow-nodes" serif:id="Hollow nodes">
        <g transform="matrix(1.41493,0,0,1.41493,-13.7495,-225.891)">
            <path d="M176.302,406.607C235.035,406.607 282.719,454.291 282.719,513.024C282.719,571.757 235.035,619.441 176.302,619.441C117.569,619.441 69.886,571.757 69.886,513.024C69.886,454.291 117.569,406.607 176.302,406.607ZM176.302,465.27C202.659,465.27 224.057,486.668 224.057,513.024C224.057,539.38 202.659,560.778 176.302,560.778C149.946,560.778 128.548,539.38 128.548,513.024C128.548,486.668 149.946,465.27 176.302,465.27Z" style="fill:rgb(66,66,66);"/>
        </g>
        <g transform="matrix(1.41493,0,0,1.41493,505.31,-527.034)">
            <path d="M176.302,406.607C235.035,406.607 282.719,454.291 282.719,513.024C282.719,571.757 235.035,619.441 176.302,619.441C117.569,619.441 69.886,571.757 69.886,513.024C69.886,454.291 117.569,406.607 176.302,406.607ZM176.302,465.503C202.53,465.503 223.823,486.797 223.823,513.024C223.823,539.252 202.53,560.545 176.302,560.545C150.075,560.545 128.782,539.252 128.782,513.024C128.782,486.797 150.075,465.503 176.302,465.503Z" style="fill:rgb(66,66,66);"/>
        </g>
        <g transform="matrix(1.41493,0,0,1.41493,505.31,75.2527)">
            <path d="M176.302,406.607C235.035,406.607 282.719,454.291 282.719,513.024C282.719,571.757 235.035,619.441 176.302,619.441C117.569,619.441 69.886,571.757 69.886,513.024C69.886,454.291 117.569,406.607 176.302,406.607ZM176.302,465.503C202.53,465.503 223.823,486.797 223.823,513.024C223.823,539.252 202.53,560.545 176.302,560.545C150.075,560.545 128.782,539.252 128.782,513.024C128.782,486.797 150.075,465.503 176.302,465.503Z" style="fill:rgb(66,66,66);"/>
        </g>
    </g>
</svg>
