<?xml version="1.0" encoding="UTF-8" standalone="no"?>
<!DOCTYPE svg PUBLIC "-//W3C//DTD SVG 1.1//EN" "http://www.w3.org/Graphics/SVG/1.1/DTD/svg11.dtd">
<svg width="100%" height="100%" viewBox="0 0 1000 1000" version="1.1" xmlns="http://www.w3.org/2000/svg" xmlns:xlink="http://www.w3.org/1999/xlink" xml:space="preserve" xmlns:serif="http://www.serif.com/" style="fill-rule:evenodd;clip-rule:evenodd;stroke-linecap:square;stroke-miterlimit:20;">
    <g transform="matrix(1,0,0,1,7.10543e-14,40.696)">
        <path d="M483.522,10.605C486.461,4.146 492.903,0 500,0C507.097,0 513.539,4.146 516.478,10.605L636.919,275.269C640.015,282.071 644.82,287.956 650.867,292.349C656.914,296.743 663.995,299.494 671.422,300.336L960.35,333.097C967.401,333.897 973.335,338.742 975.528,345.492C977.721,352.241 975.769,359.649 970.534,364.44L756.043,560.772C750.529,565.818 746.418,572.207 744.108,579.315C741.798,586.424 741.37,594.009 742.864,601.332L800.99,886.243C802.409,893.196 799.634,900.337 793.893,904.508C788.151,908.68 780.502,909.112 774.328,905.614L521.324,762.291C514.821,758.607 507.474,756.67 500,756.67C492.526,756.67 485.179,758.607 478.676,762.291L225.672,905.614C219.498,909.112 211.849,908.68 206.107,904.508C200.366,900.337 197.591,893.196 199.01,886.243L257.136,601.332C258.63,594.009 258.202,586.424 255.892,579.315C253.582,572.207 249.471,565.818 243.957,560.772L29.466,364.44C24.231,359.649 22.279,352.241 24.472,345.492C26.665,338.742 32.599,333.897 39.65,333.097L328.578,300.336C336.005,299.494 343.086,296.743 349.133,292.349C355.18,287.956 359.985,282.071 363.081,275.269L483.522,10.605Z" style="fill:none;stroke:rgb(55,55,55);stroke-width:33.29px;"/>
    </g>
</svg>
