<?xml version="1.0" encoding="UTF-8" standalone="no"?>
<!DOCTYPE svg PUBLIC "-//W3C//DTD SVG 1.1//EN" "http://www.w3.org/Graphics/SVG/1.1/DTD/svg11.dtd">
<svg width="100%" height="100%" viewBox="0 0 1000 1000" version="1.1" xmlns="http://www.w3.org/2000/svg" xmlns:xlink="http://www.w3.org/1999/xlink" xml:space="preserve" xmlns:serif="http://www.serif.com/" style="fill-rule:evenodd;clip-rule:evenodd;stroke-linejoin:round;stroke-miterlimit:2;">
    <g transform="matrix(5.76692,0,0,6.0873,-1458.65,-2539.68)">
        <path d="M339.635,417.21L359.729,440.76L390.597,432.897L392.242,463.138L422.093,473.966L404.661,499.348L422.093,524.73L392.242,535.558L390.597,565.799L359.729,557.937L339.635,581.486L319.541,557.937L288.673,565.799L287.028,535.558L257.177,524.73L274.609,499.348L257.177,473.966L287.028,463.138L288.673,432.897L319.541,440.76L339.635,417.21Z" style="fill:rgb(65,238,255);"/>
    </g>
    <g transform="matrix(1.58186,1.58186,-0.430437,0.430437,-0.282811,-199.853)">
        <path d="M440.678,482.725C440.678,448.725 433.167,421.121 423.915,421.121L300.987,421.121C291.735,421.121 284.224,448.725 284.224,482.725L284.224,605.932C284.224,639.932 291.735,667.536 300.987,667.536L423.915,667.536C433.167,667.536 440.678,639.932 440.678,605.932L440.678,482.725Z" style="fill:rgb(246,246,246);"/>
    </g>
    <g transform="matrix(2.71175,-2.71175,0.430437,0.430437,-649.064,1267.98)">
        <path d="M440.678,482.725C440.678,448.725 436.296,421.121 430.9,421.121L294.003,421.121C288.606,421.121 284.224,448.725 284.224,482.725L284.224,605.932C284.224,639.932 288.606,667.536 294.003,667.536L430.9,667.536C436.296,667.536 440.678,639.932 440.678,605.932L440.678,482.725Z" style="fill:white;"/>
    </g>
</svg>
